<?xml version="1.0" standalone="no"?>
<!DOCTYPE svg PUBLIC "-//W3C//DTD SVG 20010904//EN"
 "http://www.w3.org/TR/2001/REC-SVG-20010904/DTD/svg10.dtd">
<svg version="1.0" xmlns="http://www.w3.org/2000/svg"
 width="3217.000000pt" height="4094.000000pt" viewBox="0 0 3217.000000 4094.000000"
 preserveAspectRatio="xMidYMid meet">
 
 <!-- EKR Using 100% works in a browser, but not in Qt. -->
 <rect width="3217.000000pt" height="4094.000000pt" fill-opacity="1.0" fill="white"/>

<g transform="translate(0.000000,4094.000000) scale(0.100000,-0.100000)"
fill="#000000" stroke="none">
<path d="M19826 40698 c4 -7 40 -58 79 -113 87 -122 288 -423 401 -602 230
-363 266 -509 283 -1158 14 -538 -13 -758 -119 -981 -48 -100 -134 -193 -211
-229 -43 -19 -70 -25 -130 -25 -66 0 -81 4 -120 29 -112 70 -184 223 -263 551
-56 232 -69 401 -46 590 11 89 75 416 90 462 4 14 6 29 3 32 -8 7 -195 -158
-273 -240 -280 -300 -445 -611 -511 -969 -32 -173 -32 -484 0 -670 48 -281
127 -492 257 -693 30 -45 62 -99 73 -120 17 -33 91 -354 91 -394 0 -8 -21 -62
-46 -119 -191 -430 -304 -890 -304 -1233 0 -252 74 -606 236 -1141 85 -278
147 -441 241 -630 49 -100 314 -547 320 -541 3 2 0 44 -6 92 -56 476 -64 581
-65 869 -1 244 3 321 22 485 72 611 162 899 397 1269 154 244 454 649 789
1066 301 375 398 515 492 711 196 413 199 908 8 1506 -57 179 -231 598 -350
843 -181 375 -284 497 -740 886 -175 149 -588 479 -599 479 -4 0 -3 -6 1 -12z"/>
<path d="M15687 40180 c-269 -138 -599 -377 -764 -553 -124 -134 -203 -309
-288 -644 -39 -157 -38 -105 -15 -523 29 -519 50 -728 96 -940 15 -73 93 -315
119 -375 8 -16 25 -59 40 -95 14 -36 30 -74 35 -85 11 -24 38 -86 135 -305 40
-91 108 -241 150 -335 274 -604 393 -943 489 -1385 91 -418 148 -981 132
-1284 -15 -270 -69 -400 -293 -703 -30 -40 -49 -73 -44 -73 28 0 455 282 536
353 88 78 186 239 363 597 l86 175 9 360 c13 554 1 877 -40 1065 -25 118 -148
600 -209 825 -125 456 -234 731 -452 1140 -54 102 -91 167 -240 425 -230 399
-347 837 -312 1172 19 190 72 318 254 617 63 103 201 355 285 519 33 64 47
102 39 102 -8 0 -57 -22 -111 -50z"/>
<path d="M18343 39971 c-23 -11 -56 -26 -75 -35 -18 -8 -109 -49 -203 -91
-332 -148 -440 -229 -632 -475 -225 -289 -384 -689 -468 -1175 -51 -293 -59
-383 -59 -680 0 -288 7 -379 50 -700 8 -60 25 -193 39 -295 26 -193 42 -256
94 -378 66 -152 201 -549 252 -740 39 -146 66 -303 68 -401 4 -176 -64 -553
-145 -804 -9 -26 -14 -53 -12 -59 8 -22 238 201 326 316 144 187 247 509 321
1006 6 36 19 119 31 185 64 363 75 629 40 950 -56 519 -103 761 -225 1165 -57
187 -108 394 -135 545 -19 103 -21 143 -17 290 7 204 24 295 99 505 76 212
139 293 602 768 66 67 113 122 105 122 -8 0 -33 -9 -56 -19z"/>
<path d="M13115 39807 c-248 -128 -492 -273 -612 -366 -201 -155 -322 -370
-426 -756 -73 -268 -104 -497 -106 -770 -2 -249 20 -389 96 -620 37 -114 117
-318 173 -440 17 -38 43 -97 58 -130 44 -101 255 -514 321 -630 172 -299 356
-591 501 -795 86 -121 341 -479 489 -685 259 -360 464 -660 614 -897 122 -193
175 -331 203 -526 16 -116 16 -128 0 -230 -21 -129 -73 -245 -165 -367 -33
-43 -59 -81 -56 -83 4 -5 133 78 285 182 352 242 416 334 482 697 19 108 22
158 22 384 0 543 -73 784 -365 1210 -116 169 -136 198 -322 447 -96 128 -265
364 -377 523 -112 160 -273 382 -359 495 -460 604 -590 794 -699 1021 -62 128
-98 247 -127 419 -25 151 -31 182 -74 400 -28 141 -61 400 -61 480 0 88 26
252 51 325 56 163 208 358 508 653 91 89 161 162 156 162 -6 -1 -100 -47 -210
-103z"/>
<path d="M22290 39875 c0 -4 66 -106 148 -229 81 -122 161 -244 178 -271 17
-28 58 -93 91 -145 272 -432 337 -598 427 -1090 40 -217 45 -627 11 -825 -55
-316 -156 -575 -310 -791 -99 -138 -178 -228 -420 -474 -289 -294 -391 -403
-560 -599 -16 -19 -48 -56 -71 -81 -284 -315 -616 -759 -771 -1030 -284 -496
-293 -516 -319 -655 -27 -149 -62 -350 -74 -425 -79 -517 -96 -700 -80 -853
18 -167 52 -262 161 -448 69 -120 207 -326 288 -434 115 -154 342 -427 348
-421 2 2 -12 78 -31 167 -37 168 -46 206 -92 389 -26 105 -31 122 -78 297 -60
220 -69 367 -36 588 34 235 100 448 183 597 95 170 212 303 653 743 324 324
372 374 545 565 275 306 1013 1257 1094 1411 42 81 182 431 220 549 47 152 66
265 76 475 14 277 -8 663 -51 890 -5 28 -21 113 -36 190 -60 324 -157 624
-259 805 -100 177 -237 322 -560 591 -222 185 -675 530 -675 514z"/>
<path d="M9474 39429 c-6 -8 -34 -53 -62 -101 -128 -219 -221 -465 -269 -718
-26 -137 -26 -610 0 -790 61 -415 147 -610 368 -830 178 -178 522 -441 1049
-801 420 -288 678 -473 865 -622 463 -370 683 -636 835 -1007 61 -151 104
-233 175 -335 35 -50 70 -107 78 -127 25 -59 38 -171 31 -263 -4 -47 -4 -85
-1 -85 10 0 61 117 107 241 136 369 104 624 -142 1137 -117 245 -232 404 -445
613 -277 274 -478 434 -1153 919 -996 715 -1329 1046 -1424 1410 -31 120 -39
227 -39 530 -1 290 10 505 34 705 13 105 10 146 -7 124z"/>
<path d="M24501 39038 c7 -13 40 -75 74 -138 128 -238 151 -282 289 -555 237
-470 419 -877 505 -1131 134 -398 134 -774 -1 -1169 -51 -148 -102 -251 -300
-605 -173 -308 -267 -567 -268 -736 0 -50 4 -64 23 -81 18 -17 317 -173 331
-173 2 0 37 -15 78 -34 213 -98 502 -196 623 -211 46 -6 55 -4 74 16 11 12 21
28 21 33 0 24 32 221 61 376 52 283 107 609 128 765 49 370 55 451 55 780 0
353 -11 449 -75 675 -128 451 -498 1013 -1104 1680 -178 195 -504 530 -517
530 -5 0 -3 -10 3 -22z"/>
<path d="M7184 38741 c-189 -123 -298 -351 -325 -684 -31 -367 66 -752 261
-1042 115 -170 219 -282 495 -534 94 -85 202 -184 240 -220 39 -37 113 -104
165 -151 88 -80 286 -258 375 -339 259 -236 627 -546 985 -830 782 -621 1156
-939 1485 -1266 255 -253 397 -452 479 -669 29 -77 56 -249 52 -328 -2 -31 0
-61 3 -67 7 -10 75 122 116 224 65 159 59 468 -15 760 -83 327 -183 510 -503
919 -115 147 -119 152 -267 314 -194 214 -497 471 -950 807 -396 294 -621 476
-905 734 -28 26 -88 80 -135 121 -372 330 -1086 1029 -1242 1217 -225 270
-297 457 -285 738 5 115 30 268 51 318 13 28 -15 21 -80 -22z"/>
<path d="M5103 37338 c-246 -211 -442 -563 -503 -902 -35 -195 -24 -499 27
-706 44 -181 104 -288 260 -462 385 -429 848 -784 1368 -1048 195 -99 351
-167 605 -265 80 -31 197 -76 260 -100 63 -24 169 -65 235 -90 340 -131 890
-354 1050 -425 11 -5 46 -20 77 -34 236 -104 314 -140 468 -217 207 -102 635
-332 770 -414 192 -116 333 -227 420 -330 70 -81 145 -236 175 -359 33 -135
50 -348 36 -449 -22 -158 -98 -248 -406 -479 -169 -127 -174 -131 -150 -125
11 3 52 13 90 22 210 52 428 131 527 191 152 92 262 260 317 483 60 241 90
713 56 876 -8 39 -29 97 -45 130 -199 391 -941 1003 -1700 1404 -271 143 -399
195 -880 358 -337 114 -583 219 -955 409 -469 238 -822 449 -1379 822 -348
233 -474 330 -626 482 -242 241 -286 340 -256 567 26 190 93 409 192 621 23
50 39 92 35 92 -4 0 -34 -24 -68 -52z"/>
<path d="M26970 36132 c0 -6 20 -64 44 -129 128 -346 239 -730 308 -1068 31
-152 33 -171 33 -380 0 -171 -4 -241 -18 -315 -58 -302 -199 -669 -335 -869
l-42 -61 51 -117 c219 -507 518 -1016 632 -1077 33 -19 36 -19 61 -2 24 15 84
128 176 331 81 177 157 434 200 675 83 461 67 1088 -39 1480 -98 365 -349 778
-731 1200 -160 177 -340 353 -340 332z"/>
<path d="M3562 35740 c-28 -73 -67 -201 -102 -335 -110 -428 -121 -740 -45
-1250 49 -334 103 -530 199 -730 60 -126 138 -220 212 -256 64 -31 164 -24
255 18 150 69 388 253 632 489 103 100 121 124 95 124 -27 0 -280 133 -364
192 -260 180 -473 417 -578 642 -109 233 -201 580 -261 981 -9 61 -20 119 -25
130 -7 19 -8 19 -18 -5z"/>
<path d="M2546 35187 c-40 -69 -156 -306 -194 -397 -276 -653 -346 -1212 -207
-1660 78 -250 193 -501 367 -799 216 -369 345 -471 481 -380 113 75 235 249
377 541 55 113 100 210 100 215 0 4 -53 56 -118 114 -215 193 -407 428 -569
699 -195 326 -249 544 -246 1000 1 172 22 519 39 653 8 55 -3 60 -30 14z"/>
<path d="M23720 34254 c-281 -15 -356 -23 -344 -33 5 -4 70 -22 144 -40 734
-179 1443 -552 1923 -1011 398 -381 648 -799 772 -1286 136 -541 85 -1175
-130 -1604 -151 -300 -368 -484 -648 -551 -154 -37 -427 -19 -606 40 -260 85
-377 273 -357 571 8 113 19 170 97 490 115 472 179 602 401 816 92 89 219 181
311 225 26 13 47 27 47 31 0 10 10 11 -111 -12 -173 -32 -234 -48 -377 -95
-190 -62 -364 -151 -587 -301 -104 -70 -230 -152 -280 -182 -348 -214 -365
-223 -378 -187 -11 26 26 353 67 605 47 280 93 398 197 502 117 116 280 183
679 281 124 31 252 61 285 67 33 6 67 14 75 16 22 8 -35 30 -177 69 -173 48
-364 75 -525 75 -363 0 -629 -104 -1118 -438 -312 -213 -300 -206 -315 -191
-41 41 -81 653 -56 829 20 132 76 273 198 498 25 46 43 85 40 88 -8 8 -164
-36 -252 -72 -257 -103 -481 -282 -596 -474 -118 -199 -162 -452 -179 -1020
-22 -766 -7 -1014 79 -1249 113 -310 386 -574 1033 -1000 218 -143 296 -193
623 -401 546 -345 1025 -564 1625 -745 210 -63 513 -126 803 -167 209 -30 601
-32 757 -4 142 25 421 93 615 149 227 67 586 241 825 400 174 116 388 312 468
428 106 155 162 333 181 578 14 170 14 776 1 1026 -26 488 -122 1118 -235
1545 -40 151 -39 153 -64 -162 -57 -740 -141 -1277 -272 -1733 -81 -281 -242
-553 -431 -730 -155 -144 -370 -268 -522 -301 -93 -21 -144 -7 -190 50 l-31
38 -6 846 c-5 688 -9 876 -22 1002 -9 85 -19 164 -22 176 -2 12 -9 54 -15 95
-5 41 -15 94 -20 119 -139 629 -327 993 -688 1330 -265 247 -793 615 -1156
804 -328 172 -547 217 -1041 214 -137 0 -360 -7 -495 -14z"/>
<path d="M1357 33763 c-136 -226 -224 -505 -273 -868 -26 -188 -27 -698 -1
-875 36 -246 81 -398 174 -587 145 -296 334 -555 594 -814 251 -250 433 -359
600 -359 80 0 140 29 188 92 23 31 52 122 62 198 11 83 11 497 1 601 l-7 66
-100 83 c-500 416 -861 790 -955 988 -82 171 -129 421 -185 967 -17 166 -19
182 -36 408 -7 86 -16 157 -20 157 -4 0 -23 -26 -42 -57z"/>
<path d="M6070 33456 c-3 -2 -48 -6 -100 -7 -264 -5 -508 -61 -705 -162 -205
-105 -514 -298 -690 -431 -266 -200 -605 -524 -767 -731 -213 -274 -383 -586
-465 -855 -157 -513 -199 -1137 -107 -1600 85 -433 237 -734 500 -992 120
-117 201 -183 459 -375 594 -441 643 -491 653 -681 6 -104 -13 -179 -78 -317
-26 -55 -67 -140 -90 -190 -222 -470 -233 -488 -433 -673 -150 -138 -374 -308
-629 -479 -130 -86 -222 -153 -214 -156 69 -27 349 -10 541 32 548 120 1040
476 1374 993 158 243 228 366 501 873 343 640 439 791 609 968 194 201 589
461 848 558 174 66 306 81 646 77 141 -2 257 0 257 3 0 19 -255 201 -347 248
-143 71 -348 98 -638 81 -191 -11 -323 -33 -470 -80 -235 -76 -394 -174 -660
-409 -296 -261 -430 -351 -610 -412 -57 -19 -91 -24 -180 -24 -100 0 -114 2
-161 27 -163 86 -405 342 -591 627 -268 408 -413 858 -413 1281 0 250 54 529
160 835 117 333 254 544 491 751 473 413 924 678 1464 859 164 55 411 132 580
182 66 19 140 41 165 48 25 7 88 25 140 40 51 14 95 27 97 29 11 11 -408 38
-782 51 -93 3 -211 8 -260 11 -50 3 -92 3 -95 0z"/>
<path d="M17245 33110 c4 -30 10 -71 15 -90 31 -128 53 -355 54 -550 0 -229
-16 -334 -74 -510 -66 -195 -126 -276 -435 -590 -138 -140 -278 -289 -312
-330 -129 -161 -251 -365 -463 -775 -110 -213 -163 -297 -212 -340 -47 -40
-105 -59 -148 -50 -45 10 -103 57 -139 113 -26 41 -48 59 -109 93 -367 201
-1123 714 -1373 931 -15 13 -65 56 -112 96 -127 109 -381 374 -468 487 -191
252 -303 510 -414 955 -20 80 -39 147 -41 149 -7 7 -73 -144 -103 -235 -56
-171 -74 -283 -74 -459 -1 -167 15 -263 63 -392 98 -262 420 -695 904 -1213
29 -30 87 -93 131 -140 43 -47 115 -123 160 -170 206 -217 443 -479 543 -603
213 -262 344 -500 591 -1072 62 -143 116 -269 121 -280 5 -11 27 -65 50 -120
23 -55 54 -131 70 -170 16 -38 49 -122 74 -185 24 -63 61 -158 81 -210 38 -99
71 -183 110 -285 26 -67 138 -374 241 -657 37 -104 69 -187 70 -185 3 3 15 93
39 287 15 122 45 359 71 550 8 63 22 162 29 220 99 740 231 1505 311 1808 14
53 29 111 33 127 18 72 108 313 157 423 13 29 24 55 24 57 0 3 22 51 48 107
27 57 61 132 78 168 16 36 135 277 265 535 350 698 448 934 545 1304 59 225
77 334 77 466 1 204 -42 307 -210 505 -45 52 -125 138 -178 190 l-97 95 7 -55z"/>
<path d="M7530 32604 c-200 -13 -418 -24 -560 -29 -91 -3 -187 -8 -215 -10
-48 -5 -715 -40 -992 -52 -73 -3 -130 -10 -127 -14 4 -8 189 -99 200 -99 2 0
48 -21 101 -46 54 -25 172 -77 263 -116 393 -166 510 -205 905 -298 22 -5 99
-21 170 -35 154 -31 175 -38 175 -64 0 -29 -190 -175 -306 -235 -98 -51 -168
-59 -489 -53 -178 4 -340 12 -420 22 -107 14 -185 16 -435 11 -408 -8 -860
-28 -854 -38 6 -9 105 -74 199 -130 62 -38 290 -153 360 -183 83 -35 234 -88
335 -116 244 -70 395 -86 1290 -140 144 -8 188 -14 197 -26 6 -8 10 -20 7 -26
-8 -22 -557 -267 -769 -345 -268 -98 -627 -180 -987 -227 -212 -28 -212 -28
307 -69 655 -53 924 -63 1272 -47 153 7 330 16 393 21 268 21 383 31 525 45
339 35 445 44 550 50 182 10 258 41 378 154 133 125 211 273 268 506 19 75 23
119 23 265 1 153 -2 186 -23 265 -111 425 -493 751 -1141 977 -169 59 -266 78
-410 82 -74 2 -160 2 -190 0z"/>
<path d="M18490 31936 c0 -2 96 -132 213 -289 752 -1007 932 -1272 1097 -1611
156 -323 267 -637 500 -1411 190 -635 256 -862 266 -912 4 -18 11 -33 16 -33
5 0 43 24 86 54 147 103 269 156 359 156 57 0 161 -39 229 -86 116 -80 282
-284 342 -419 76 -173 68 -379 -27 -643 -55 -152 -83 -211 -146 -308 -138
-212 -276 -310 -946 -674 -541 -295 -708 -422 -835 -635 -72 -122 -169 -357
-219 -530 -67 -235 -89 -378 -89 -580 0 -226 24 -359 141 -775 117 -420 216
-694 354 -979 180 -373 289 -480 704 -693 131 -67 375 -171 573 -244 95 -35
175 -64 178 -64 10 0 -21 37 -113 136 -246 265 -412 492 -482 659 -58 136
-108 350 -135 570 -4 28 -11 79 -16 115 -31 200 -72 752 -85 1116 -8 215 -6
221 62 285 124 117 163 128 473 140 454 17 577 36 707 109 87 49 124 81 215
188 110 129 149 161 199 162 38 0 75 -42 98 -113 58 -178 29 -298 -120 -497
-89 -119 -236 -288 -358 -413 -102 -103 -102 -103 -199 -332 -181 -427 -217
-578 -173 -726 27 -89 122 -283 218 -444 39 -66 142 -229 161 -255 10 -14 22
33 22 90 0 69 19 278 46 495 30 248 85 412 183 544 58 78 210 227 376 367 163
137 307 276 359 343 90 118 284 479 395 736 23 55 49 114 56 130 44 102 100
293 126 429 52 276 7 461 -200 819 -28 49 -51 90 -51 92 0 11 -255 424 -330
535 -21 30 -83 109 -139 174 -191 224 -216 281 -208 466 4 86 15 151 41 255
l36 140 -48 77 c-235 387 -421 692 -447 733 -17 28 -69 111 -114 185 -46 74
-93 151 -106 170 -12 19 -49 76 -80 125 -386 602 -708 1018 -1060 1370 -468
467 -1161 1037 -1913 1574 -159 113 -192 135 -192 127z"/>
<path d="M12084 31807 c-7 -7 -70 -64 -140 -127 -287 -256 -673 -622 -739
-699 -198 -233 -266 -388 -355 -807 -29 -133 -56 -252 -81 -349 -75 -294 -219
-578 -521 -1030 -177 -264 -301 -430 -614 -821 -350 -437 -502 -652 -572 -811
-81 -183 -128 -502 -153 -1038 -27 -597 46 -1045 234 -1420 129 -259 383 -575
660 -822 274 -244 419 -337 672 -430 153 -56 268 -112 480 -236 163 -95 514
-323 679 -441 43 -31 82 -56 86 -54 13 5 -43 168 -93 270 -58 119 -134 236
-220 336 -122 142 -224 224 -566 449 -270 178 -387 263 -499 362 -261 230
-360 391 -377 613 -8 108 7 164 55 196 30 21 43 23 89 18 113 -13 161 -50 306
-231 261 -326 383 -433 545 -479 98 -27 260 -46 505 -57 193 -9 245 -14 267
-27 77 -47 364 -251 535 -380 287 -216 363 -388 363 -819 0 -274 -41 -766 -90
-1073 -5 -30 -9 -71 -9 -90 l-1 -35 28 35 c327 414 724 996 822 1204 91 197
128 390 116 612 -19 327 -115 485 -500 813 -146 125 -445 362 -540 428 -26 18
-51 44 -55 57 -5 13 -13 79 -16 147 -12 222 -48 343 -129 436 -76 87 -317 257
-497 351 -243 126 -462 189 -819 237 -151 20 -637 55 -772 55 -58 0 -114 3
-123 6 -14 6 -55 84 -120 229 -63 139 -89 248 -82 343 13 195 166 482 351 659
93 90 151 127 232 148 50 13 66 13 125 1 79 -17 111 -32 199 -94 94 -67 217
-177 363 -326 70 -71 127 -123 127 -115 0 8 -5 43 -10 79 -27 184 -82 655
-100 850 -50 572 -50 829 -1 1070 80 383 254 935 529 1675 139 373 363 943
417 1060 14 32 29 85 24 85 -2 -1 -9 -6 -15 -13z"/>
<path d="M297 31286 c-10 -74 -8 -347 3 -471 18 -191 61 -337 169 -570 309
-671 749 -1231 1233 -1569 69 -47 256 -166 263 -166 2 0 54 -29 115 -65 61
-36 113 -65 115 -65 6 0 343 -183 446 -243 83 -48 166 -100 353 -222 74 -48
72 -61 -29 -157 -112 -107 -133 -119 -290 -169 -71 -23 -148 -47 -170 -54 -97
-31 -338 -85 -427 -95 -80 -9 -118 -8 -214 5 -118 16 -340 64 -514 110 -52 14
-145 37 -205 50 -61 13 -130 32 -155 43 -25 11 -133 82 -240 157 -107 76 -293
208 -413 292 -121 85 -221 152 -224 149 -17 -17 188 -463 272 -591 52 -79 173
-198 260 -256 236 -157 590 -337 895 -455 63 -25 124 -49 135 -54 27 -13 165
-60 270 -93 53 -16 197 -51 255 -61 183 -31 578 -24 1065 19 88 8 200 17 249
21 86 7 95 10 251 88 210 106 324 182 364 243 27 40 31 55 31 112 0 68 -29
203 -74 351 l-25 85 -223 218 c-123 120 -250 241 -283 270 -33 28 -92 83 -131
122 -79 79 -73 62 -124 335 -48 254 -109 429 -182 523 -17 21 -74 77 -127 126
l-97 88 -125 6 c-298 16 -581 45 -699 73 -83 20 -259 104 -375 179 -49 32
-151 104 -226 161 -399 303 -651 579 -834 914 -61 111 -319 624 -327 650 -3 8
-8 -7 -11 -34z"/>
<path d="M22176 29617 c38 -39 154 -162 259 -272 104 -110 231 -243 280 -295
83 -86 307 -326 460 -490 33 -36 105 -114 160 -175 55 -60 125 -137 156 -170
212 -229 741 -827 895 -1012 318 -381 517 -685 904 -1378 500 -896 665 -1155
1125 -1765 721 -957 786 -1042 829 -1089 69 -75 378 -292 591 -416 126 -73
411 -211 535 -260 394 -155 774 -235 1114 -235 246 0 536 51 911 160 143 42
388 133 513 192 253 118 536 360 783 670 234 293 291 444 353 928 29 220 61
815 45 804 -4 -2 -31 -46 -60 -97 -265 -465 -516 -847 -688 -1045 -82 -94
-211 -196 -329 -258 -184 -98 -674 -184 -1049 -184 -161 0 -379 21 -525 51
-375 75 -700 277 -846 526 -53 90 -64 87 280 95 425 9 637 45 903 150 1036
411 1509 728 1775 1188 397 686 509 1556 329 2555 -34 187 -79 380 -144 615
-21 75 -35 97 -35 55 0 -129 -39 -488 -74 -680 -137 -765 -532 -1522 -1090
-2093 -367 -375 -636 -522 -1131 -621 -338 -67 -586 -101 -738 -101 -228 0
-705 75 -962 152 -253 76 -563 244 -845 458 -176 134 -460 384 -460 406 0 6 6
16 13 22 6 5 129 15 272 21 579 25 1024 66 1265 117 393 83 814 309 1215 653
446 383 683 680 780 978 114 346 167 802 169 1430 0 265 -3 356 -12 365 -9 9
-12 8 -12 -4 0 -35 -142 -429 -255 -708 -37 -91 -76 -186 -86 -213 -40 -101
-171 -362 -240 -479 -183 -311 -337 -462 -621 -613 -132 -69 -246 -114 -543
-213 -324 -108 -477 -138 -851 -168 -345 -27 -626 -29 -933 -5 -538 43 -728
88 -991 239 -231 133 -406 267 -794 611 -229 202 -429 371 -533 448 -162 120
-478 319 -703 443 -63 35 -131 72 -150 83 -19 11 -116 63 -215 117 -190 103
-205 111 -410 225 -71 40 -150 84 -175 97 -25 14 -140 78 -256 142 -116 64
-215 116 -219 116 -5 0 23 -33 61 -73z"/>
<path d="M18859 29407 c222 -331 371 -658 446 -972 49 -209 60 -328 60 -650 0
-270 -3 -312 -23 -417 -67 -343 -202 -573 -422 -719 -98 -65 -175 -92 -265
-93 -70 -1 -88 3 -140 29 -117 59 -214 177 -436 532 -79 127 -116 185 -199
313 -155 239 -195 303 -278 438 -80 131 -87 140 -94 115 -15 -54 -20 -527 -9
-716 24 -395 48 -481 247 -877 111 -221 253 -476 342 -615 183 -286 409 -583
588 -774 l51 -54 84 99 c280 330 654 897 852 1294 199 398 290 654 360 1015
29 152 31 508 3 665 -125 709 -558 1277 -1138 1491 -129 47 -129 47 -29 -104z"/>
<path d="M12495 29091 c-492 -304 -807 -923 -807 -1585 1 -461 130 -841 457
-1341 184 -281 370 -508 670 -814 284 -290 494 -481 722 -659 l41 -32 20 27
c42 62 163 276 224 398 184 367 309 721 447 1255 71 276 76 310 75 490 0 224
-45 492 -167 1009 -12 50 -37 83 -37 49 0 -18 -147 -413 -290 -778 -23 -58
-77 -201 -121 -319 -132 -355 -189 -447 -319 -517 -26 -14 -56 -18 -120 -18
-76 0 -92 3 -153 34 -197 98 -398 378 -586 820 -34 80 -66 154 -71 165 -5 11
-28 65 -50 120 -23 55 -47 114 -55 130 -18 42 -81 247 -97 320 -19 86 -16 347
6 460 51 269 110 445 231 688 40 81 70 147 66 147 -4 0 -43 -22 -86 -49z"/>
<path d="M8229 28353 c-243 -181 -551 -420 -709 -551 -590 -489 -849 -752
-1004 -1018 -68 -117 -147 -300 -199 -459 -52 -164 -60 -195 -49 -195 4 0 52
47 105 104 53 57 190 191 304 298 114 106 260 243 325 305 169 161 285 232
393 240 51 4 65 2 95 -19 37 -25 73 -80 91 -140 l12 -37 -114 -123 c-62 -68
-134 -145 -159 -173 -45 -49 -148 -160 -246 -265 -129 -139 -289 -315 -384
-425 -306 -351 -574 -567 -915 -738 -361 -181 -693 -257 -1120 -257 -240 0
-403 15 -635 60 -945 183 -2060 796 -2872 1579 -81 78 -149 141 -151 141 -6 0
27 -125 59 -225 74 -231 226 -516 383 -720 152 -198 390 -441 586 -598 134
-107 412 -294 555 -373 483 -266 875 -392 1660 -533 63 -12 178 -33 255 -47
77 -14 176 -32 220 -39 44 -7 132 -23 195 -35 134 -25 308 -55 434 -76 145
-24 154 -37 75 -108 -183 -165 -478 -316 -779 -401 -207 -58 -306 -70 -585
-70 -230 0 -274 3 -380 23 -436 84 -886 284 -1341 597 -263 182 -481 374 -737
650 -401 433 -841 889 -845 877 -8 -24 102 -381 174 -567 113 -291 301 -658
439 -855 166 -238 282 -364 520 -566 122 -104 520 -406 628 -477 459 -303 872
-455 1387 -511 311 -34 892 -38 1100 -7 36 6 88 13 115 16 256 30 600 133 828
247 220 110 628 383 897 602 220 178 404 402 583 707 50 87 227 430 227 442 0
3 15 38 33 79 19 40 42 93 52 118 10 25 26 63 36 85 91 214 317 911 489 1510
85 297 157 625 175 800 3 33 10 92 16 130 28 215 71 1195 52 1195 -5 0 -129
-89 -274 -197z"/>
<path d="M24280 25754 c0 -5 5 -27 10 -49 36 -147 144 -853 185 -1205 8 -74
19 -171 25 -215 36 -301 47 -873 22 -1114 -33 -306 -96 -503 -231 -725 -236
-384 -464 -863 -591 -1241 -32 -94 -58 -151 -79 -176 -33 -40 -112 -82 -173
-93 -113 -20 -198 67 -198 202 0 58 -2 63 -83 183 -210 311 -295 479 -333 660
-34 160 -17 879 26 1163 5 32 7 63 3 69 -14 23 -229 -403 -322 -638 -86 -219
-125 -380 -147 -610 -31 -319 20 -666 154 -1040 67 -190 136 -307 357 -610
259 -356 286 -406 324 -600 26 -133 49 -344 60 -549 8 -150 14 -189 24 -175 2
2 67 112 144 244 248 424 449 783 733 1310 24 44 72 134 108 200 36 66 81 149
100 185 19 36 38 70 42 75 7 9 65 120 189 359 62 119 152 320 194 431 88 239
177 618 231 995 9 63 22 144 27 180 16 100 23 551 10 650 -32 245 -51 350
-105 560 -42 164 -136 451 -176 535 -5 11 -21 49 -35 85 -31 77 -27 69 -106
245 -125 280 -390 764 -389 709z"/>
<path d="M8417 25190 c-17 -41 -105 -410 -146 -616 -100 -497 -110 -756 -40
-1042 95 -390 391 -1173 598 -1582 203 -402 809 -1450 978 -1692 18 -27 49
-72 70 -100 190 -274 563 -694 1287 -1450 115 -120 213 -218 218 -218 5 0 7
24 3 58 -3 31 -10 120 -15 197 -5 77 -14 199 -20 270 -17 216 -40 721 -40 865
0 307 33 642 95 975 76 407 95 556 95 750 0 284 -52 486 -162 628 -82 105
-247 253 -457 410 -57 42 -108 77 -112 77 -4 0 4 -35 18 -77 98 -305 172 -643
173 -790 1 -293 -213 -720 -408 -814 -64 -31 -172 -37 -243 -14 -164 55 -299
179 -570 525 -421 536 -655 930 -826 1385 -248 662 -383 1277 -482 2195 -4 41
-10 68 -14 60z"/>
<path d="M440 24253 c76 -203 365 -729 577 -1050 432 -653 936 -1168 1493
-1526 225 -144 533 -292 775 -371 353 -115 689 -173 1480 -256 105 -11 228
-24 275 -30 47 -5 166 -17 265 -25 99 -9 187 -18 195 -20 8 -2 76 -7 150 -11
142 -7 170 -14 170 -42 0 -39 -234 -475 -355 -662 -161 -250 -393 -515 -560
-642 -177 -134 -393 -223 -665 -275 -138 -26 -560 -26 -710 1 -247 43 -406 90
-640 189 -237 99 -421 205 -735 424 -80 56 -253 192 -375 298 -482 413 -906
866 -1286 1373 -79 105 -146 192 -149 192 -2 0 1 -15 6 -32 13 -40 34 -112 53
-175 67 -229 258 -774 329 -939 165 -383 369 -678 753 -1089 431 -461 843
-782 1242 -966 59 -27 116 -54 127 -59 249 -118 627 -208 992 -237 200 -15
226 -15 425 0 538 43 998 197 1409 471 501 333 861 793 1207 1541 97 210 106
229 145 325 168 410 219 695 219 1200 -1 324 -19 549 -77 929 -23 149 -30 176
-45 173 -7 -2 -74 -37 -149 -79 -370 -207 -847 -446 -1171 -585 -504 -217
-940 -356 -1187 -380 -207 -20 -473 12 -733 87 -25 7 -79 23 -120 35 -441 128
-978 392 -1505 738 -421 277 -915 655 -1265 968 -19 17 -64 57 -100 89 -36 32
-156 145 -268 252 -139 134 -199 186 -192 166z"/>
<path d="M18718 23889 c-176 -352 -218 -448 -274 -619 -53 -160 -64 -244 -64
-494 0 -518 88 -951 256 -1265 96 -179 348 -528 638 -886 106 -130 484 -611
516 -655 111 -157 197 -315 226 -415 40 -142 -14 -317 -116 -370 -32 -16 -312
-110 -410 -137 -239 -65 -419 -77 -595 -38 -55 12 -201 55 -323 96 -341 112
-373 119 -587 119 -150 -1 -195 -5 -272 -23 -97 -23 -277 -82 -353 -114 -25
-11 -116 -49 -202 -84 -242 -97 -326 -146 -373 -214 -34 -49 -70 -73 -99 -66
-12 3 -44 26 -71 51 -93 84 -462 286 -675 368 -258 100 -394 88 -694 -61 -153
-75 -401 -215 -500 -281 -71 -48 -113 -63 -276 -97 -238 -50 -519 -68 -611
-40 -146 45 -189 117 -189 319 0 160 16 240 111 557 28 91 59 197 71 235 92
313 236 745 371 1115 52 141 96 253 202 511 198 480 258 714 256 1010 -2 369
-120 642 -410 942 -106 109 -268 253 -276 245 -3 -2 15 -62 40 -132 61 -172
111 -345 142 -496 23 -108 27 -150 27 -305 0 -196 0 -197 -76 -440 -66 -214
-122 -363 -363 -970 -244 -613 -313 -859 -354 -1260 -52 -503 -53 -1025 -1
-1320 52 -295 188 -578 426 -885 113 -146 366 -401 559 -565 83 -69 175 -148
205 -174 183 -157 473 -383 685 -534 499 -356 854 -652 1182 -984 155 -158
210 -249 249 -418 16 -67 19 -118 18 -316 -1 -287 -6 -306 -98 -406 -35 -37
-187 -216 -338 -398 -293 -352 -453 -517 -621 -644 -265 -198 -567 -351 -859
-435 -189 -54 -308 -71 -498 -70 -364 1 -633 104 -915 351 -168 147 -299 352
-326 507 -42 248 115 564 363 729 120 79 269 143 581 247 103 35 187 67 187
71 0 8 -238 6 -859 -6 l-245 -5 -103 -50 c-264 -128 -542 -325 -714 -505 -120
-126 -210 -278 -243 -413 -43 -170 1 -386 117 -586 100 -173 309 -382 520
-522 203 -134 503 -293 592 -313 72 -16 549 -58 945 -82 227 -14 575 -7 686
14 144 28 281 70 422 133 17 8 49 21 70 31 270 119 721 358 1172 622 240 140
336 184 448 202 129 21 287 -18 315 -78 9 -20 49 -44 175 -104 91 -44 166 -79
167 -79 2 0 47 -21 102 -46 54 -26 132 -61 173 -79 41 -18 102 -45 135 -60
107 -48 108 -48 580 -247 66 -28 138 -58 160 -68 219 -97 515 -193 730 -237
224 -45 808 -3 1186 86 579 136 988 482 1115 941 38 139 45 338 15 481 -33
164 -82 276 -172 395 -66 89 -104 129 -157 166 -40 27 -53 31 -165 39 -67 4
-241 18 -387 29 -146 11 -301 23 -344 27 -59 4 -77 3 -72 -5 4 -7 11 -12 16
-12 23 0 143 -63 229 -120 158 -104 296 -259 360 -405 106 -241 39 -530 -170
-730 -121 -115 -265 -185 -479 -233 -102 -22 -137 -25 -320 -25 -227 -1 -356
16 -578 74 -168 43 -404 124 -540 185 -29 13 -54 24 -57 24 -17 0 -396 188
-580 287 -258 140 -321 189 -655 503 -119 112 -482 449 -617 572 -18 16 -35
43 -38 61 -10 52 3 438 15 482 69 235 319 582 754 1045 419 446 930 935 1508
1443 191 168 333 316 444 463 214 284 352 557 432 854 52 193 57 233 57 500
l0 255 -37 180 c-105 509 -229 864 -386 1105 -67 103 -181 243 -342 420 -395
433 -529 659 -696 1177 -96 298 -109 387 -109 728 0 296 4 342 51 683 14 100
24 190 22 199 -2 9 -65 -107 -140 -258z m955 -5316 c-33 -80 -179 -364 -251
-488 -209 -362 -406 -575 -532 -575 -19 0 -69 9 -110 20 -138 36 -259 21 -400
-50 -236 -119 -505 -460 -867 -1100 -210 -371 -430 -813 -442 -887 -20 -131
-106 -178 -193 -105 -40 34 -92 116 -120 189 -18 49 -53 92 -236 293 -276 302
-269 294 -392 435 -246 282 -382 454 -475 605 -221 357 -299 465 -403 562 -33
30 -82 68 -109 83 -43 24 -58 27 -138 27 -49 0 -121 -8 -160 -16 -112 -26
-264 -32 -302 -13 -68 36 -186 197 -308 420 -20 38 -35 70 -33 72 4 4 53 -5
263 -52 637 -140 1104 -287 1287 -405 147 -94 384 -386 695 -853 135 -202 190
-292 249 -404 57 -110 128 -191 165 -191 41 0 123 47 157 89 18 22 47 73 65
113 56 122 420 687 620 963 192 264 301 383 452 490 87 62 335 214 445 273 30
16 98 53 150 82 127 71 911 460 927 460 9 0 8 -10 -4 -37z"/>
<path d="M8017 23250 c-221 -782 -279 -1488 -168 -2039 27 -130 83 -343 125
-471 168 -514 515 -1275 792 -1735 259 -431 341 -545 1085 -1525 279 -367 350
-477 434 -675 47 -110 157 -498 200 -705 31 -150 64 -322 81 -417 10 -56 20
-101 22 -98 16 15 57 314 76 550 35 422 8 859 -70 1177 -88 352 -269 734 -569
1198 -12 19 -44 69 -70 110 -27 41 -81 125 -120 185 -40 61 -94 144 -120 185
-26 41 -58 91 -70 110 -187 289 -599 999 -810 1395 -26 50 -77 143 -112 208
-125 230 -288 563 -343 702 -195 489 -241 714 -320 1570 -12 121 -24 238 -28
260 -7 37 -9 38 -15 15z"/>
<path d="M255 23128 c27 -124 38 -167 63 -253 122 -420 325 -805 580 -1100 67
-77 280 -292 438 -440 741 -698 1067 -904 1657 -1049 247 -61 489 -93 802
-106 469 -20 678 25 835 180 107 105 341 412 326 427 -3 3 -124 7 -268 9 -538
8 -1184 50 -1438 95 -298 53 -742 245 -1290 559 -368 210 -552 342 -741 530
-191 190 -551 626 -834 1007 -66 89 -123 162 -128 163 -4 0 -5 -10 -2 -22z"/>
<path d="M26490 23006 c0 -13 424 -657 597 -906 129 -186 574 -783 767 -1030
319 -408 569 -660 1076 -1082 366 -305 528 -449 701 -625 251 -254 541 -609
831 -1013 294 -411 417 -656 498 -990 11 -47 25 -101 30 -120 20 -78 74 -406
86 -514 9 -90 18 -70 38 79 47 345 62 486 82 767 23 330 7 484 -75 736 -62
187 -106 293 -216 517 -281 572 -585 1028 -838 1259 -179 163 -419 333 -802
566 -66 40 -136 83 -155 95 -19 13 -102 65 -185 115 -401 247 -659 441 -957
717 -440 407 -479 444 -1016 978 -249 248 -455 452 -458 454 -2 2 -4 1 -4 -3z"/>
<path d="M25538 22215 c-3 -6 -8 -77 -12 -160 -21 -461 -60 -862 -107 -1085
-74 -354 -229 -716 -562 -1320 -204 -371 -285 -505 -556 -920 -50 -77 -368
-542 -550 -805 -315 -453 -397 -594 -484 -835 -121 -333 -180 -620 -181 -875
0 -232 30 -351 197 -795 47 -124 95 -245 106 -270 l20 -45 -7 140 c-4 77 -7
273 -6 435 0 267 2 304 22 386 31 131 83 268 156 414 145 286 260 441 551 740
235 241 281 306 684 953 188 301 424 709 553 952 86 163 248 489 248 501 0 3
7 20 15 37 53 116 135 373 186 585 88 368 91 625 9 982 -12 52 -26 115 -32
140 -14 61 -104 395 -135 500 -14 47 -31 105 -38 130 -39 134 -71 224 -77 215z"/>
<path d="M26576 21123 c-17 -17 -1 -734 24 -1063 34 -456 162 -871 444 -1440
317 -638 502 -924 1066 -1650 595 -765 948 -1277 1365 -1980 316 -534 468
-882 509 -1170 4 -25 11 -65 16 -90 11 -52 34 -244 55 -475 23 -245 25 -268
35 -450 17 -291 22 -348 31 -332 13 23 162 473 218 657 173 573 195 677 195
930 1 205 -7 246 -93 507 -185 559 -406 1002 -828 1663 -279 437 -310 483
-506 779 -396 594 -498 727 -1072 1396 -165 193 -312 364 -325 381 -14 17 -72
89 -130 160 -313 383 -464 623 -583 924 -66 167 -202 579 -307 925 -28 94 -60
199 -71 234 -10 35 -19 70 -19 77 0 15 -15 26 -24 17z"/>
<path d="M7520 20718 c-29 -68 -70 -159 -90 -203 -20 -44 -61 -134 -90 -200
-96 -214 -373 -755 -480 -935 -442 -750 -1070 -1488 -1643 -1933 -356 -277
-637 -409 -960 -452 -147 -19 -193 -19 -342 0 -595 77 -1138 343 -1740 853
-152 129 -563 546 -726 737 -290 339 -562 691 -772 1002 -116 169 -272 413
-280 436 -2 6 -7 9 -11 6 -4 -4 4 -40 18 -80 40 -122 191 -556 234 -674 22
-60 64 -175 92 -255 234 -649 396 -986 679 -1415 361 -546 676 -906 1016
-1159 201 -150 359 -236 665 -360 253 -102 559 -238 715 -316 64 -32 70 -37
69 -65 -2 -28 -15 -127 -49 -380 -9 -60 -25 -180 -36 -265 -19 -144 -26 -202
-64 -510 -26 -214 -45 -365 -55 -440 -6 -41 -15 -124 -21 -185 -5 -60 -14
-150 -19 -200 -22 -225 -31 -565 -21 -831 11 -284 12 -298 36 -549 43 -451
114 -883 224 -1360 144 -625 246 -824 691 -1345 206 -242 480 -544 486 -537 2
2 -29 53 -69 113 -39 61 -86 132 -103 160 -17 27 -48 76 -69 109 -115 180
-275 456 -330 570 -115 235 -169 461 -215 891 -26 248 -35 478 -35 919 0 861
49 1338 196 1913 16 64 34 128 39 142 4 14 18 59 31 100 82 280 290 817 485
1250 81 181 324 652 413 800 135 225 415 642 657 976 495 685 825 1163 958
1389 26 44 51 87 56 95 94 153 233 438 286 585 38 105 88 276 105 353 70 337
112 679 129 1045 12 253 12 327 2 327 -5 0 -33 -55 -62 -122z"/>
<path d="M21121 20367 c-18 -185 -14 -594 9 -823 27 -273 61 -447 124 -629 35
-105 50 -139 111 -270 143 -303 155 -502 49 -799 -67 -188 -162 -324 -365
-524 -178 -175 -282 -262 -427 -358 -238 -159 -348 -191 -686 -199 -239 -6
-336 -13 -336 -24 0 -4 19 -12 43 -18 23 -6 65 -18 92 -26 413 -124 453 -132
690 -131 279 0 492 32 693 103 94 34 377 178 496 254 312 197 499 417 522 611
9 73 -11 231 -47 373 -78 309 -280 759 -542 1208 -80 136 -146 272 -175 360
-40 120 -106 381 -152 600 -12 55 -25 118 -30 140 -5 22 -19 90 -30 150 -12
61 -23 111 -24 113 -2 1 -8 -49 -15 -111z"/>
<path d="M12125 19442 c0 -306 -2 -349 -23 -472 -35 -202 -87 -397 -194 -725
-208 -640 -249 -934 -173 -1237 71 -277 254 -518 480 -631 202 -100 506 -152
763 -129 71 6 152 17 178 23 131 32 247 63 319 87 l80 27 -280 6 c-298 6 -322
10 -439 65 -160 76 -326 286 -410 519 -29 80 -56 244 -56 337 0 74 26 358 40
438 20 113 50 413 50 497 0 256 -81 689 -215 1153 -20 69 -41 141 -47 160 -11
38 -69 214 -71 217 -1 1 -2 -150 -2 -335z"/>
<path d="M8141 19187 c-6 -16 -11 -35 -11 -43 0 -53 -151 -679 -195 -809 -42
-124 -80 -226 -101 -273 -13 -29 -24 -55 -24 -58 0 -3 -37 -78 -81 -167 -182
-363 -324 -571 -952 -1400 -406 -536 -564 -758 -892 -1252 -392 -592 -501
-767 -620 -1005 -130 -258 -191 -440 -255 -757 -46 -230 -97 -626 -118 -908
-4 -55 -7 -296 -7 -535 1 -449 6 -538 56 -995 96 -874 198 -1101 767 -1703
189 -201 598 -582 623 -582 5 0 -2 18 -16 40 -14 22 -25 42 -25 44 0 3 -13 27
-29 54 -173 293 -461 832 -540 1010 -188 421 -237 834 -196 1628 8 159 19 321
24 359 6 39 13 97 16 130 49 456 271 1186 500 1639 137 271 252 456 700 1126
322 481 434 656 550 865 64 114 173 332 215 430 37 86 53 124 93 225 25 63 57
145 71 183 14 37 37 95 50 130 63 162 274 739 322 882 216 636 240 930 129
1540 -43 242 -41 233 -54 202z"/>
<path d="M25816 18639 c-6 -20 -17 -178 -36 -534 -5 -99 -15 -268 -21 -375
-14 -241 -6 -640 15 -770 66 -405 256 -986 506 -1545 5 -11 19 -42 31 -70 70
-164 145 -316 245 -500 176 -325 252 -446 801 -1272 506 -761 566 -853 845
-1303 242 -391 562 -980 725 -1335 28 -60 66 -141 83 -180 90 -193 190 -449
227 -580 29 -104 54 -257 72 -450 23 -233 28 -366 37 -948 4 -235 10 -424 13
-420 4 4 14 40 24 78 9 39 23 99 31 135 49 207 169 758 195 895 57 305 66 398
65 675 0 262 -9 357 -55 620 -78 439 -298 1185 -445 1507 -8 17 -14 34 -14 37
0 33 -342 731 -490 1001 -15 28 -48 88 -73 135 -201 380 -531 918 -716 1167
-28 37 -72 97 -98 133 -27 35 -139 183 -251 328 -520 677 -684 899 -855 1157
-54 82 -107 161 -116 175 -67 97 -187 323 -248 465 -31 72 -94 253 -121 345
-6 19 -27 91 -47 160 -61 211 -193 739 -281 1124 -19 82 -36 151 -39 154 -2 3
-7 -1 -9 -9z"/>
<path d="M8924 17973 c-13 -59 -164 -615 -199 -733 -56 -190 -61 -207 -98
-325 -115 -360 -268 -769 -384 -1023 -8 -19 -37 -84 -64 -145 -192 -432 -506
-1038 -710 -1374 -94 -154 -150 -244 -244 -393 -301 -475 -457 -730 -530 -865
-21 -38 -59 -108 -85 -155 -53 -95 -161 -316 -210 -430 -111 -255 -192 -565
-261 -1000 -31 -195 -34 -577 -6 -710 47 -215 146 -505 267 -780 75 -172 225
-464 228 -447 2 10 -3 64 -12 120 -48 309 -60 459 -60 737 0 240 2 292 22 406
58 343 222 807 380 1074 103 174 261 377 473 605 313 337 481 548 662 829 165
258 348 616 500 981 217 519 366 983 491 1530 8 33 30 130 51 215 58 248 85
404 97 565 20 270 -15 465 -187 1020 -48 154 -89 290 -92 303 -7 30 -21 28
-29 -5z"/>
<path d="M24641 16643 c-190 -588 -244 -769 -291 -982 -31 -142 -60 -357 -60
-451 0 -70 25 -216 52 -300 67 -210 238 -537 538 -1030 284 -468 372 -626 582
-1043 130 -260 203 -399 361 -687 16 -30 47 -84 67 -120 21 -36 50 -87 65
-115 15 -27 73 -129 128 -225 206 -361 256 -449 347 -615 51 -93 110 -200 130
-236 68 -120 305 -602 374 -759 114 -257 242 -593 284 -740 21 -74 72 -246 81
-275 13 -39 74 -283 100 -400 86 -383 118 -709 107 -1080 -9 -299 -45 -845
-76 -1160 -14 -143 -12 -148 21 -65 42 107 240 698 293 875 118 395 198 755
226 1007 13 123 13 546 0 698 -24 276 -77 630 -127 845 -68 294 -200 652 -388
1050 -59 124 -414 836 -425 850 -4 6 -32 57 -62 115 -30 58 -79 148 -108 200
-29 52 -66 120 -83 150 -167 306 -339 580 -829 1325 -387 587 -678 1099 -793
1395 -103 262 -166 545 -310 1390 -8 47 -22 128 -30 180 -8 52 -23 151 -34
220 -11 69 -23 153 -27 188 -4 34 -10 65 -15 68 -4 2 -49 -120 -98 -273z"/>
<path d="M21706 16173 c-23 -126 -50 -210 -93 -298 -88 -180 -220 -302 -393
-361 -80 -28 -361 -27 -515 1 -153 28 -593 29 -730 2 -189 -38 -328 -84 -475
-157 -113 -57 -214 -133 -320 -239 -104 -105 -105 -115 -3 -86 212 62 519 136
668 161 174 29 221 33 365 34 212 0 217 -1 595 -198 179 -93 234 -112 340
-119 104 -7 168 7 280 62 131 64 239 149 330 261 75 91 114 176 146 319 41
182 22 387 -52 541 -28 60 -106 174 -119 174 -3 0 -14 -44 -24 -97z"/>
<path d="M11652 16122 c-42 -69 -79 -183 -93 -288 -20 -150 13 -322 93 -480
140 -278 541 -503 799 -450 40 9 105 32 145 52 66 33 115 67 324 228 118 90
253 150 435 192 68 16 122 19 350 19 259 0 403 -11 605 -45 30 -5 82 -12 115
-15 l60 -6 -40 35 c-91 81 -245 172 -380 224 -186 71 -378 103 -614 103 -234
-1 -343 -20 -611 -106 -262 -84 -243 -80 -405 -80 -144 1 -153 2 -222 32 -109
46 -159 79 -243 160 -121 115 -211 258 -264 421 -10 28 -19 52 -21 52 -2 0
-17 -22 -33 -48z"/>
<path d="M9795 15287 c0 -688 -2 -788 -18 -917 -46 -362 -119 -654 -240 -960
-192 -485 -444 -897 -1117 -1820 -437 -600 -580 -800 -709 -994 -300 -447
-444 -714 -606 -1126 -224 -571 -265 -818 -265 -1604 0 -568 33 -1027 125
-1716 34 -258 46 -349 55 -400 5 -30 19 -118 31 -195 112 -747 209 -1015 527
-1460 150 -210 479 -640 568 -744 2 -2 6 -2 9 1 3 2 -31 81 -74 174 -218 469
-388 885 -453 1109 -61 213 -120 615 -153 1045 -8 107 -17 211 -20 230 -17
127 -25 806 -11 985 10 127 42 354 65 460 26 115 108 446 125 505 8 25 28 97
46 160 70 256 163 556 175 569 20 21 42 7 48 -31 4 -18 11 -107 17 -198 17
-251 69 -793 90 -935 74 -499 139 -782 277 -1195 49 -146 129 -360 163 -435 5
-11 21 -48 35 -82 69 -169 236 -492 328 -633 187 -287 355 -477 622 -701 214
-180 633 -494 622 -467 -3 8 -77 122 -164 254 -203 304 -230 346 -343 534 -83
136 -274 502 -307 585 -6 17 -19 48 -28 70 -109 263 -271 794 -342 1120 -98
452 -137 731 -168 1185 -8 124 -17 238 -20 253 -3 16 -5 191 -5 390 -1 306 2
388 20 529 40 332 104 569 280 1043 80 213 91 243 173 440 25 61 53 128 62
150 9 22 23 54 31 72 8 17 14 33 14 36 0 8 184 425 238 537 88 186 154 343
189 450 41 125 130 407 148 470 7 25 25 86 40 135 100 337 227 795 277 1000
62 258 95 578 84 834 -19 442 -72 804 -187 1281 -67 278 -220 757 -247 774 -4
2 -7 -343 -7 -767z"/>
<path d="M22766 14205 c-163 -112 -293 -311 -366 -556 -35 -119 -55 -278 -46
-379 27 -327 264 -766 629 -1165 92 -101 201 -217 327 -350 47 -50 150 -160
230 -245 237 -253 327 -348 861 -900 307 -318 356 -374 444 -509 125 -193 303
-628 374 -916 44 -176 54 -286 48 -520 -3 -121 -11 -267 -17 -325 -55 -507
-68 -612 -120 -1000 -52 -387 -86 -715 -101 -977 -20 -356 6 -547 148 -1078
111 -415 235 -712 377 -902 144 -193 359 -372 568 -473 149 -72 231 -90 423
-97 168 -5 722 20 737 35 4 4 -23 16 -60 26 -490 135 -665 204 -803 314 -209
166 -408 441 -493 682 -43 120 -64 272 -77 561 -18 408 -19 697 -4 838 14 130
17 143 70 366 203 843 235 1048 235 1521 0 243 -21 689 -39 819 -6 39 -13 95
-16 125 -10 88 -43 275 -71 405 -41 189 -95 363 -207 672 -107 293 -236 548
-363 718 -145 194 -519 493 -1149 917 -207 139 -191 127 -600 484 -521 455
-654 600 -780 854 -51 102 -96 231 -127 360 -19 82 -22 123 -22 305 -1 190 2
219 23 300 13 50 28 98 33 108 14 27 -11 20 -66 -18z"/>
<path d="M10935 12563 c-545 -685 -893 -1268 -1063 -1778 -56 -169 -122 -465
-142 -645 -6 -47 -16 -130 -22 -185 -17 -134 -16 -1014 0 -1235 47 -636 84
-948 132 -1115 218 -761 463 -1415 743 -1980 214 -431 397 -730 690 -1125 121
-162 215 -284 595 -764 295 -371 582 -767 709 -977 362 -592 462 -1112 306
-1579 -39 -119 -141 -379 -193 -495 -71 -158 -119 -262 -169 -369 -34 -71 -60
-130 -58 -132 9 -9 371 319 537 486 215 215 388 431 461 572 82 159 106 362
74 613 -44 337 -133 686 -248 970 -40 99 -202 435 -324 675 -108 210 -436 823
-453 845 -4 6 -20 33 -35 60 -58 107 -183 329 -300 535 -67 118 -134 238 -150
265 -443 797 -486 878 -827 1555 -545 1086 -735 1607 -827 2280 -71 513 -54
1055 50 1630 29 159 36 196 80 380 83 348 210 746 376 1175 53 139 69 177 158
389 25 60 44 113 43 117 -2 5 -66 -71 -143 -168z"/>
<path d="M16725 12393 c-226 -16 -588 -89 -840 -170 -795 -255 -1669 -807
-2170 -1369 -293 -330 -432 -596 -545 -1049 -93 -374 -97 -506 -31 -970 27
-185 115 -653 125 -663 8 -7 6 -13 66 138 67 169 228 554 268 640 17 36 50
110 75 166 256 571 561 988 962 1313 244 199 438 253 555 154 60 -50 75 -94
75 -223 0 -115 -9 -171 -61 -405 -111 -499 -268 -946 -584 -1670 -65 -148
-138 -313 -163 -366 -48 -103 -62 -139 -53 -139 21 0 245 173 396 306 324 284
621 674 762 999 16 39 59 154 94 257 58 171 102 279 171 428 72 155 168 348
185 372 33 48 49 25 117 -164 35 -95 107 -294 161 -443 54 -148 140 -385 190
-525 51 -140 98 -269 106 -287 8 -17 14 -36 14 -42 0 -6 6 -25 14 -43 8 -18
40 -105 72 -193 63 -177 80 -208 70 -130 -15 123 -26 475 -21 625 17 427 108
689 270 772 50 26 153 34 225 19 30 -6 96 -31 147 -55 200 -96 312 -186 688
-556 311 -306 424 -403 581 -496 312 -185 678 -312 1074 -374 141 -22 174 -24
166 -12 -3 5 -91 71 -197 148 -223 162 -405 310 -516 421 -134 134 -381 442
-573 716 -30 43 -71 100 -90 127 -121 168 -200 291 -200 308 0 48 33 32 279
-131 489 -326 852 -537 1103 -641 163 -68 400 -131 683 -182 77 -14 172 -31
210 -38 39 -8 72 -12 74 -10 1 1 -68 56 -155 120 -462 341 -808 654 -879 795
-46 89 -107 291 -144 476 -24 119 -26 162 -7 169 7 3 51 -4 97 -14 46 -11 120
-27 164 -37 65 -14 202 -48 445 -110 194 -50 381 -115 505 -175 207 -101 442
-295 847 -702 147 -147 264 -260 261 -251 -4 9 -29 57 -56 107 -27 50 -67 125
-90 166 -152 281 -383 647 -531 840 -303 399 -665 714 -1241 1082 -264 169
-697 398 -985 520 -25 11 -54 23 -65 28 -87 39 -387 150 -520 193 -471 152
-887 225 -1305 231 -124 2 -247 1 -275 -1z"/>
<path d="M12194 11922 c-236 -188 -468 -471 -637 -778 -52 -94 -147 -287 -147
-300 0 -3 -8 -24 -19 -47 -113 -254 -209 -655 -231 -971 -23 -327 26 -620 214
-1271 114 -397 193 -585 518 -1235 177 -353 226 -448 380 -735 304 -566 609
-1079 992 -1667 248 -382 344 -532 379 -588 271 -438 355 -586 443 -782 97
-216 142 -381 168 -627 36 -327 7 -589 -100 -925 -33 -100 -110 -310 -134
-361 -26 -56 -61 -148 -57 -151 4 -5 214 210 328 336 126 140 251 297 297 376
90 152 131 356 139 699 12 495 -47 792 -298 1502 -75 210 -97 269 -224 593
-51 129 -141 347 -183 440 -10 25 -36 83 -57 130 -164 371 -428 835 -856 1510
-51 80 -67 105 -207 332 -335 542 -578 1016 -787 1538 -160 399 -210 590 -240
910 -19 208 -19 288 0 525 24 292 95 678 170 925 59 193 83 268 117 360 21 58
43 114 48 125 46 105 89 209 86 212 -2 2 -48 -31 -102 -75z"/>
<path d="M21804 11343 c157 -156 527 -539 602 -624 251 -285 413 -516 535
-764 146 -298 166 -404 154 -835 -3 -140 -10 -291 -15 -335 -5 -44 -21 -177
-35 -295 -113 -956 -178 -1581 -230 -2215 -8 -99 -17 -202 -20 -230 -26 -229
-75 -1005 -75 -1190 0 -261 37 -619 86 -834 91 -396 425 -1112 702 -1500 118
-167 278 -321 437 -423 152 -98 366 -202 565 -275 183 -67 475 -150 500 -141
6 2 -13 21 -42 43 -96 71 -341 267 -468 374 -353 296 -518 484 -647 738 -141
279 -201 572 -201 983 1 284 19 497 83 960 8 58 24 175 35 260 56 424 65 490
135 970 31 212 62 428 70 480 7 52 23 156 34 230 118 789 131 902 131 1185 0
266 -24 508 -90 900 -53 310 -78 435 -121 603 -31 123 -41 152 -96 296 -146
378 -480 815 -808 1058 -75 55 -292 198 -300 198 -3 0 -22 11 -43 23 -169 106
-502 251 -766 333 -116 36 -123 38 -112 27z"/>
<path d="M18084 8303 c-434 -379 -733 -903 -734 -1284 0 -197 96 -569 245
-954 24 -60 60 -153 80 -205 20 -52 57 -147 82 -210 160 -408 314 -963 343
-1241 12 -120 13 -416 0 -539 -67 -655 -335 -1313 -719 -1767 -33 -40 -61 -75
-61 -79 0 -7 31 15 198 139 376 278 706 591 870 826 154 220 230 389 347 772
102 335 201 775 230 1029 23 200 9 316 -78 630 -24 85 -140 399 -187 505 -5
11 -21 49 -36 85 -15 36 -85 178 -155 316 -172 339 -211 434 -269 649 -111
414 -131 905 -55 1363 5 26 4 42 -3 42 -5 0 -49 -35 -98 -77z"/>
<path d="M15757 8078 c-213 -213 -346 -396 -471 -645 -100 -202 -148 -378
-148 -548 0 -124 17 -232 68 -415 60 -214 119 -380 281 -790 98 -247 176 -471
267 -766 30 -99 85 -325 105 -431 65 -345 52 -763 -35 -1163 -56 -256 -173
-582 -291 -809 -103 -198 -192 -332 -356 -539 -27 -34 23 0 180 121 230 179
341 277 513 454 244 249 411 495 514 756 58 147 165 516 212 732 64 292 105
513 120 647 17 150 17 164 1 271 -36 241 -135 548 -302 937 -16 36 -95 196
-176 355 -211 416 -284 644 -335 1045 -31 242 -20 698 22 913 4 16 1 27 -6 27
-6 0 -80 -69 -163 -152z"/>
<path d="M20550 8020 c0 -6 11 -36 24 -68 59 -143 125 -362 166 -557 42 -197
53 -314 53 -535 -1 -241 -2 -248 -98 -730 -30 -151 -100 -478 -150 -700 -8
-36 -35 -157 -60 -270 -24 -113 -56 -254 -69 -315 -45 -200 -94 -429 -106
-490 -92 -497 -109 -676 -110 -1145 -1 -578 42 -1129 111 -1417 79 -335 314
-727 626 -1048 282 -290 449 -375 988 -505 94 -22 188 -45 210 -50 39 -10 125
-27 353 -70 63 -12 115 -20 117 -18 2 2 -83 64 -188 138 -389 273 -623 481
-739 655 -105 157 -252 473 -326 700 -73 221 -97 374 -112 703 -22 472 20 968
135 1597 45 245 80 455 120 715 26 171 80 660 90 815 3 50 8 115 10 145 13
168 17 234 30 545 26 589 18 745 -45 935 -100 295 -270 547 -465 685 -81 57
-333 191 -510 270 -22 10 -43 20 -47 22 -5 2 -8 -1 -8 -7z"/>
</g>
</svg>
